<?xml version="1.0" encoding="utf-8"?>
<!-- Generator: Adobe Illustrator 24.1.0, SVG Export Plug-In . SVG Version: 6.00 Build 0) -->
<svg version="1.1" id="Layer_1" xmlns="http://www.w3.org/2000/svg" xmlns:xlink="http://www.w3.org/1999/xlink" x="0px" y="0px" viewBox="0 0 595.3 280.6" style="enable-background:new 0 0 595.3 280.6;" xml:space="preserve">
	<style type="text/css">
		.st0{clip-path:url(#SVGID_2_);}
		.st1{clip-path:url(#SVGID_4_);fill-rule:evenodd;clip-rule:evenodd;fill:#E5E3E3;}
		.st2{clip-path:url(#SVGID_4_);fill-rule:evenodd;clip-rule:evenodd;fill:#8FC4EB;}
		.st3{clip-path:url(#SVGID_4_);fill-rule:evenodd;clip-rule:evenodd;fill:#CCC9C8;}
		.st4{clip-path:url(#SVGID_4_);fill-rule:evenodd;clip-rule:evenodd;fill:#86D0F4;}
		.st5{clip-path:url(#SVGID_6_);fill-rule:evenodd;clip-rule:evenodd;fill:#FBBA07;}
		.st6{clip-path:url(#SVGID_6_);fill:#12110C;}
		.st7{clip-path:url(#SVGID_6_);fill:none;stroke:#FBBA07;stroke-width:6.400000e-02;}
		.st8{clip-path:url(#SVGID_6_);fill-rule:evenodd;clip-rule:evenodd;fill:#31AA47;}
		.st9{font-family:'CalvertMT';}
		.st10{font-size:6px;}
		.st11{fill:#6D6D6C;}
		.st12{font-size:5px;}
		.st13{fill:#FFFFFF;}
		.st14{font-size:5.4997px;}
		.st15{clip-path:url(#SVGID_2_);fill-rule:evenodd;clip-rule:evenodd;fill:#0070BA;}
		.st16{clip-path:url(#SVGID_8_);fill-rule:evenodd;clip-rule:evenodd;fill:#FFFFFF;}
		.st17{clip-path:url(#SVGID_8_);fill:#FBBA07;}
		.st18{clip-path:url(#SVGID_8_);fill-rule:evenodd;clip-rule:evenodd;}
		.st19{clip-path:url(#SVGID_8_);fill-rule:evenodd;clip-rule:evenodd;fill:#0070BA;}
		.st20{font-size:7px;}
		.st21{clip-path:url(#SVGID_10_);fill:#FBBA07;}
		.st22{clip-path:url(#SVGID_10_);fill-rule:evenodd;clip-rule:evenodd;}
		.st23{clip-path:url(#SVGID_12_);fill:#FBBA07;}
		.st24{clip-path:url(#SVGID_12_);fill-rule:evenodd;clip-rule:evenodd;}
		.st25{clip-path:url(#SVGID_12_);fill:none;stroke:#000000;stroke-width:0.38;}
		.st26{clip-path:url(#SVGID_14_);fill:#FBBA07;}
		.st27{clip-path:url(#SVGID_14_);fill-rule:evenodd;clip-rule:evenodd;}
		.st28{clip-path:url(#SVGID_16_);fill:#FFFFFF;}
		.st29{clip-path:url(#SVGID_18_);fill-rule:evenodd;clip-rule:evenodd;fill:#0070BA;}
		.st30{clip-path:url(#SVGID_18_);fill-rule:evenodd;clip-rule:evenodd;fill:#FFFFFF;}
		.st31{clip-path:url(#SVGID_18_);fill:none;stroke:#000000;stroke-width:0.38;}
		.st32{font-size:11.5px;}
		.st33{clip-path:url(#SVGID_20_);fill:#FBBA07;}
		.st34{clip-path:url(#SVGID_20_);fill-rule:evenodd;clip-rule:evenodd;}
		.st35{clip-path:url(#SVGID_2_);fill:none;stroke:#000000;}
	</style>
	<g>
		<defs>
			<rect id="SVGID_1_" width="595.3" height="280.6" />
		</defs>
		<clipPath id="SVGID_2_">
			<use xlink:href="#SVGID_1_" style="overflow:visible;" />
		</clipPath>
		<g class="st0">
			<defs>
				<rect id="SVGID_3_" width="595.3" height="280.6" />
			</defs>
			<clipPath id="SVGID_4_">
				<use xlink:href="#SVGID_3_" style="overflow:visible;" />
			</clipPath>
			<path class="st1" d="M213.6,134.4c11.8,0,21.4-9.6,21.4-21.4c0-11.8-9.6-21.4-21.4-21.4c-11.8,0-21.4,9.6-21.4,21.4
			C192.2,124.8,201.8,134.4,213.6,134.4" />
			<polygon class="st2" points="108.1,146.9 108.1,151.4 195.4,151.4 214.9,134.5 392.2,134.7 409.3,130 466.1,130 492.3,138 
			522,131.6 526.8,133.3 526.8,208.6 456.1,208.6 435.1,209.8 310,209.8 309.8,214.4 435.1,214.4 456.1,215.9 526.8,215.9 
			527,262.2 577.6,262.3 577.4,17.1 526.6,17 526.8,113.4 492.8,126 464,123 409.3,123 391.9,128.9 213.8,129.2 194.5,146.9 
			124.1,146.9 		" />
			<path class="st1" d="M518.3,245.5c10.2,0,18.5-8.3,18.5-18.5c0-10.2-8.3-18.5-18.5-18.5c-10.2,0-18.5,8.3-18.5,18.5
			C499.8,237.3,508.1,245.5,518.3,245.5" />
			<path class="st3" d="M526.7,212.8l0.1,30.7c2.4-1.4,5.2-2.8,7-6.2c1.7-2.7,3.2-6.4,3.1-9.8c0.1-4.3-1.9-8.3-2.1-8.8
			c-0.2-0.5-1.7-2.8-1.7-2.8L526.7,212.8z" />
			<path class="st3" d="M518.3,208.5c-6.1,0-11.5,2.9-14.8,7.3h0.6l28.9,0l0,0C529.8,211.4,525,208.5,518.3,208.5" />
			<rect x="507.1" y="113.3" class="st4" width="3.4" height="34.2" />
		</g>
		<g class="st0">
			<defs>
				<rect id="SVGID_5_" width="595.3" height="280.6" />
			</defs>
			<clipPath id="SVGID_6_">
				<use xlink:href="#SVGID_5_" style="overflow:visible;" />
			</clipPath>
			<path class="st5" d="M520,48.7c0-3.7-2.8-6.7-6.5-6.8H350.4v3.9h162.9c1.6,0.1,2.8,1.4,2.8,2.9v57.7c0,1.6-1.2,2.9-2.8,3H350.4
			v3.9h163.1c3.6-0.2,6.5-3.3,6.5-6.9V48.7z M350.4,150c0,0,159.4,0,161.3,0c2.5,0,2.7-3.9,0-3.9H350.4V150z M350.4,41.9H187.5
			c-3.7,0-6.8,3.1-6.8,6.8c0,1.1,0.3,2.3,0.8,3.3c0,0,30.5,52.8,33.2,57.4h-15.1v3.9H217c0.1,0.2,4.2,7.2,4.2,7.2l15,26
			c1.3,2.1,3.6,3.4,6.1,3.5h108.1v-3.9H242.2c-1,0-2-0.6-2.6-1.5c0,0-16.1-27.8-18.1-31.3h128.8v-3.9H219.3
			C219.1,109.2,185,50,185,50c-0.2-0.4-0.3-0.9-0.3-1.3c0-1.6,1.3-2.9,2.8-2.9h162.8V41.9z" />
			<path class="st6" d="M215.8,45.2c-0.7,0-1.3-0.6-1.3-1.3c0-0.7,0.6-1.3,1.3-1.3c0.7,0,1.3,0.6,1.3,1.3
			C217.1,44.6,216.5,45.2,215.8,45.2" />
			<path class="st6" d="M254.4,45.2c-0.7,0-1.3-0.6-1.3-1.3c0-0.7,0.6-1.3,1.3-1.3c0.7,0,1.3,0.6,1.3,1.3
			C255.7,44.6,255.1,45.2,254.4,45.2" />
			<path class="st6" d="M292.9,45.2c-0.7,0-1.3-0.6-1.3-1.3c0-0.7,0.6-1.3,1.3-1.3c0.7,0,1.3,0.6,1.3,1.3
			C294.2,44.6,293.6,45.2,292.9,45.2" />
			<path class="st6" d="M331.4,45.1c-0.7,0-1.3-0.6-1.3-1.3c0-0.7,0.6-1.3,1.3-1.3c0.7,0,1.3,0.6,1.3,1.3
			C332.7,44.6,332.1,45.1,331.4,45.1" />
			<path class="st6" d="M370,45.2c-0.7,0-1.3-0.6-1.3-1.3c0-0.7,0.6-1.3,1.3-1.3c0.7,0,1.3,0.6,1.3,1.3
			C371.3,44.6,370.7,45.2,370,45.2" />
			<path class="st6" d="M408.6,45.1c-0.7,0-1.3-0.6-1.3-1.3c0-0.7,0.6-1.3,1.3-1.3c0.7,0,1.3,0.6,1.3,1.3
			C409.9,44.6,409.3,45.1,408.6,45.1" />
			<path class="st6" d="M447.2,45.1c-0.7,0-1.3-0.6-1.3-1.3c0-0.7,0.6-1.3,1.3-1.3c0.7,0,1.3,0.6,1.3,1.3
			C448.4,44.6,447.9,45.1,447.2,45.1" />
			<path class="st6" d="M485,45.2c-0.7,0-1.3-0.6-1.3-1.3c0-0.7,0.6-1.3,1.3-1.3c0.7,0,1.3,0.6,1.3,1.3
			C486.3,44.6,485.7,45.2,485,45.2" />
			<path class="st6" d="M518.1,58.3c-0.7,0-1.3-0.6-1.3-1.3c0-0.7,0.6-1.3,1.3-1.3c0.7,0,1.3,0.6,1.3,1.3
			C519.4,57.8,518.8,58.3,518.1,58.3" />
			<path class="st6" d="M518.1,79.2c-0.7,0-1.3-0.6-1.3-1.3c0-0.7,0.6-1.3,1.3-1.3c0.7,0,1.3,0.6,1.3,1.3
			C519.4,78.6,518.8,79.2,518.1,79.2" />
			<path class="st6" d="M518,100c-0.7,0-1.3-0.6-1.3-1.3c0-0.7,0.6-1.3,1.3-1.3c0.7,0,1.3,0.6,1.3,1.3C519.3,99.4,518.8,100,518,100" />
			<path class="st6" d="M508.9,112.7c-0.7,0-1.3-0.6-1.3-1.3c0-0.7,0.6-1.3,1.3-1.3c0.7,0,1.3,0.6,1.3,1.3
			C510.2,112.1,509.6,112.7,508.9,112.7" />
			<path class="st6" d="M482,112.6c-0.7,0-1.3-0.6-1.3-1.3c0-0.7,0.6-1.3,1.3-1.3c0.7,0,1.3,0.6,1.3,1.3
			C483.3,112,482.7,112.6,482,112.6" />
			<path class="st6" d="M455.1,112.7c-0.7,0-1.3-0.6-1.3-1.3c0-0.7,0.6-1.3,1.3-1.3c0.7,0,1.3,0.6,1.3,1.3
			C456.4,112.1,455.8,112.7,455.1,112.7" />
			<path class="st6" d="M428.2,112.7c-0.7,0-1.3-0.6-1.3-1.3c0-0.7,0.6-1.3,1.3-1.3c0.7,0,1.3,0.6,1.3,1.3
			C429.5,112.1,428.9,112.7,428.2,112.7" />
			<path class="st6" d="M401.3,112.6c-0.7,0-1.3-0.6-1.3-1.3c0-0.7,0.6-1.3,1.3-1.3c0.7,0,1.3,0.6,1.3,1.3
			C402.6,112,402,112.6,401.3,112.6" />
			<path class="st6" d="M374.7,112.6c-0.7,0-1.3-0.6-1.3-1.3c0-0.7,0.6-1.3,1.3-1.3c0.7,0,1.3,0.6,1.3,1.3
			C376,112,375.4,112.6,374.7,112.6" />
			<path class="st6" d="M390.5,149.3c-0.7,0-1.3-0.6-1.3-1.3c0-0.7,0.6-1.3,1.3-1.3c0.7,0,1.3,0.6,1.3,1.3
			C391.8,148.8,391.2,149.3,390.5,149.3" />
			<path class="st6" d="M410.1,149.4c-0.7,0-1.3-0.6-1.3-1.3c0-0.7,0.6-1.3,1.3-1.3c0.7,0,1.3,0.6,1.3,1.3
			C411.4,148.8,410.8,149.4,410.1,149.4" />
			<path class="st6" d="M429.9,149.4c-0.7,0-1.3-0.6-1.3-1.3c0-0.7,0.6-1.3,1.3-1.3c0.7,0,1.3,0.6,1.3,1.3
			C431.2,148.8,430.6,149.4,429.9,149.4" />
			<path class="st6" d="M449.6,149.3c-0.7,0-1.3-0.6-1.3-1.3c0-0.7,0.6-1.3,1.3-1.3c0.7,0,1.3,0.6,1.3,1.3
			C450.9,148.8,450.3,149.3,449.6,149.3" />
			<path class="st6" d="M469.4,149.4c-0.7,0-1.3-0.6-1.3-1.3c0-0.7,0.6-1.3,1.3-1.3c0.7,0,1.3,0.6,1.3,1.3
			C470.7,148.8,470.1,149.4,469.4,149.4" />
			<path class="st6" d="M489.2,149.4c-0.7,0-1.3-0.6-1.3-1.3c0-0.7,0.6-1.3,1.3-1.3c0.7,0,1.3,0.6,1.3,1.3
			C490.5,148.8,489.9,149.4,489.2,149.4" />
			<path class="st6" d="M509.2,149.4c-0.7,0-1.3-0.6-1.3-1.3c0-0.7,0.6-1.3,1.3-1.3c0.7,0,1.3,0.6,1.3,1.3
			C510.5,148.8,509.9,149.4,509.2,149.4" />
			<path class="st6" d="M347.7,112.7c-0.7,0-1.3-0.6-1.3-1.3c0-0.7,0.6-1.3,1.3-1.3c0.7,0,1.3,0.6,1.3,1.3
			C348.9,112.1,348.4,112.7,347.7,112.7" />
			<path class="st6" d="M320.8,112.6c-0.7,0-1.3-0.6-1.3-1.3c0-0.7,0.6-1.3,1.3-1.3s1.3,0.6,1.3,1.3
			C322.1,112,321.5,112.6,320.8,112.6" />
			<path class="st6" d="M293.8,112.6c-0.7,0-1.3-0.6-1.3-1.3c0-0.7,0.6-1.3,1.3-1.3c0.7,0,1.3,0.6,1.3,1.3
			C295.1,112,294.5,112.6,293.8,112.6" />
			<path class="st6" d="M267.1,112.6c-0.7,0-1.3-0.6-1.3-1.3c0-0.7,0.6-1.3,1.3-1.3c0.7,0,1.3,0.6,1.3,1.3
			C268.4,112.1,267.8,112.6,267.1,112.6" />
			<path class="st5" d="M200,113.3c1.1,0,2-0.9,2-2c0-1.1-0.9-2-2-2c-1.1,0-2,0.9-2,2C198.1,112.5,198.9,113.3,200,113.3" />
			<path class="st7" d="M200,113.3c1.1,0,2-0.9,2-2c0-1.1-0.9-2-2-2c-1.1,0-2,0.9-2,2C198.1,112.5,198.9,113.3,200,113.3z" />
			<path class="st6" d="M200,112.6c-0.7,0-1.3-0.6-1.3-1.3c0-0.7,0.6-1.3,1.3-1.3c0.7,0,1.3,0.6,1.3,1.3
			C201.3,112,200.7,112.6,200,112.6" />
			<path class="st8" d="M172.4,42.5H50.2c0,0,1.8,0-0.3,0c-2.5,0-2.4,4,0,4c2.2,0,122.4-0.1,122.4-0.1c1,0,2,0.5,2.5,1.4l25.9,44.8
			l32.4,56.1c1.9,3.2,5.3,5.1,9,5.1c0,0-0.1-0.1-0.2-0.1c0.4,0.1,5.5,0.1,127.2-0.1h0.1c2.8,0,4.4,2.5,5.1,3.7l7.4,12.4
			c2.6,3.7,5.4,5.3,8.8,5.4h2.8h120.8c1,0,1.8,0.9,1.8,1.9v57.7c0,1-0.8,1.9-1.8,1.9H406.1c0,0,4.1,0.1-0.2,0
			c-2.8,0.1-2.8,3.9,0,3.9c2.2,0,108.7,0,108.7,0c3.1-0.2,5.5-2.7,5.5-5.8v-57.8c0-3.1-2.4-5.6-5.5-5.7l-121.1-0.1h-3.6
			c-1.9-0.2-3.6-1.6-5.2-4.4l-5.8-9.9l-0.4-0.6c-1.5-2.6-3.7-6.5-8.9-6.5h-0.2l-127,0.1c-2.2,0-4.4-1.3-5.5-3.2L178.5,46
			C177.3,43.8,175,42.5,172.4,42.5" />
			<path class="st6" d="M52.4,45.8c-0.7,0-1.3-0.6-1.3-1.3c0-0.7,0.6-1.3,1.3-1.3c0.7,0,1.3,0.6,1.3,1.3
			C53.7,45.3,53.1,45.8,52.4,45.8" />
			<path class="st6" d="M71.4,45.8c-0.7,0-1.3-0.6-1.3-1.3c0-0.7,0.6-1.3,1.3-1.3c0.7,0,1.3,0.6,1.3,1.3
			C72.7,45.3,72.1,45.8,71.4,45.8" />
			<path class="st6" d="M90.6,45.8c-0.7,0-1.3-0.6-1.3-1.3c0-0.7,0.6-1.3,1.3-1.3c0.7,0,1.3,0.6,1.3,1.3
			C91.8,45.3,91.3,45.8,90.6,45.8" />
			<path class="st6" d="M128.8,45.8c-0.7,0-1.3-0.6-1.3-1.3c0-0.7,0.6-1.3,1.3-1.3c0.7,0,1.3,0.6,1.3,1.3
			C130.1,45.3,129.5,45.8,128.8,45.8" />
			<path class="st6" d="M109.6,45.8c-0.7,0-1.3-0.6-1.3-1.3c0-0.7,0.6-1.3,1.3-1.3c0.7,0,1.3,0.6,1.3,1.3
			C110.9,45.3,110.3,45.8,109.6,45.8" />
			<path class="st6" d="M148.1,45.8c-0.7,0-1.3-0.6-1.3-1.3c0-0.7,0.6-1.3,1.3-1.3c0.7,0,1.3,0.6,1.3,1.3
			C149.4,45.3,148.8,45.8,148.1,45.8" />
			<path class="st6" d="M167.2,45.8c-0.7,0-1.3-0.6-1.3-1.3c0-0.7,0.6-1.3,1.3-1.3c0.7,0,1.3,0.6,1.3,1.3
			C168.5,45.3,167.9,45.8,167.2,45.8" />
			<path class="st6" d="M466.6,174.6c-0.7,0-1.3-0.6-1.3-1.3c0-0.7,0.6-1.3,1.3-1.3c0.7,0,1.3,0.6,1.3,1.3
			C467.9,174,467.3,174.6,466.6,174.6" />
			<path class="st6" d="M434.4,174.6c-0.7,0-1.3-0.6-1.3-1.3c0-0.7,0.6-1.3,1.3-1.3c0.7,0,1.3,0.6,1.3,1.3
			C435.6,174.1,435.1,174.6,434.4,174.6" />
			<path class="st6" d="M518,183.1c-0.7,0-1.3-0.6-1.3-1.3c0-0.7,0.6-1.3,1.3-1.3c0.7,0,1.3,0.6,1.3,1.3
			C519.3,182.6,518.7,183.1,518,183.1" />
			<path class="st6" d="M518,193.2c-0.7,0-1.3-0.6-1.3-1.3c0-0.7,0.6-1.3,1.3-1.3c0.7,0,1.3,0.6,1.3,1.3
			C519.3,192.6,518.7,193.2,518,193.2" />
			<path class="st6" d="M518,204.6c-0.7,0-1.3-0.6-1.3-1.3c0-0.7,0.6-1.3,1.3-1.3c0.7,0,1.3,0.6,1.3,1.3
			C519.3,204.1,518.7,204.6,518,204.6" />
			<path class="st6" d="M518,227.1c-0.7,0-1.3-0.6-1.3-1.3c0-0.7,0.6-1.3,1.3-1.3c0.7,0,1.3,0.6,1.3,1.3
			C519.3,226.5,518.7,227.1,518,227.1" />
			<path class="st6" d="M509.8,240.1c-0.7,0-1.3-0.6-1.3-1.3c0-0.7,0.6-1.3,1.3-1.3c0.7,0,1.3,0.6,1.3,1.3
			C511.1,239.5,510.5,240.1,509.8,240.1" />
			<path class="st6" d="M484.7,240c-0.7,0-1.3-0.6-1.3-1.3c0-0.7,0.6-1.3,1.3-1.3c0.7,0,1.3,0.6,1.3,1.3
			C486,239.4,485.4,240,484.7,240" />
			<path class="st6" d="M459.2,240c-0.7,0-1.3-0.6-1.3-1.3c0-0.7,0.6-1.3,1.3-1.3c0.7,0,1.3,0.6,1.3,1.3
			C460.5,239.4,459.9,240,459.2,240" />
			<path class="st6" d="M433.9,240c-0.7,0-1.3-0.6-1.3-1.3c0-0.7,0.6-1.3,1.3-1.3c0.7,0,1.3,0.6,1.3,1.3
			C435.1,239.4,434.6,240,433.9,240" />
			<path class="st6" d="M408.4,240.1c-0.7,0-1.3-0.6-1.3-1.3s0.6-1.3,1.3-1.3c0.7,0,1.3,0.6,1.3,1.3
			C409.6,239.5,409.1,240.1,408.4,240.1" />
			<path class="st6" d="M397.2,174.6c-0.7,0-1.3-0.6-1.3-1.3c0-0.7,0.6-1.3,1.3-1.3c0.7,0,1.3,0.6,1.3,1.3
			C398.5,174.1,397.9,174.6,397.2,174.6" />
			<path class="st6" d="M185.4,55.3c-0.7,0-1.3-0.6-1.3-1.3c0-0.7,0.6-1.3,1.3-1.3c0.7,0,1.3,0.6,1.3,1.3
			C186.6,54.7,186.1,55.3,185.4,55.3" />
			<path class="st6" d="M181.3,55.3c-0.7,0-1.3-0.6-1.3-1.3c0-0.7,0.6-1.3,1.3-1.3c0.7,0,1.3,0.6,1.3,1.3
			C182.5,54.7,182,55.3,181.3,55.3" />
			<rect x="181.1" y="53.4" class="st6" width="4.4" height="1.1" />
			<path class="st6" d="M191.1,66.1c-0.7,0-1.3-0.6-1.3-1.3c0-0.7,0.6-1.3,1.3-1.3c0.7,0,1.3,0.6,1.3,1.3
			C192.4,65.6,191.8,66.1,191.1,66.1" />
			<path class="st6" d="M187,66.1c-0.7,0-1.3-0.6-1.3-1.3c0-0.7,0.6-1.3,1.3-1.3c0.7,0,1.3,0.6,1.3,1.3
			C188.3,65.6,187.7,66.1,187,66.1" />
			<rect x="186.9" y="64.3" class="st6" width="4.4" height="1.1" />
			<path class="st6" d="M198.2,77.9c-0.7,0-1.3-0.6-1.3-1.3c0-0.7,0.6-1.3,1.3-1.3c0.7,0,1.3,0.6,1.3,1.3
			C199.4,77.4,198.9,77.9,198.2,77.9" />
			<path class="st6" d="M194.1,77.9c-0.7,0-1.3-0.6-1.3-1.3c0-0.7,0.6-1.3,1.3-1.3c0.7,0,1.3,0.6,1.3,1.3
			C195.3,77.4,194.8,77.9,194.1,77.9" />
			<rect x="193.9" y="76.1" class="st6" width="4.4" height="1.1" />
			<path class="st6" d="M204.1,88.4c-0.7,0-1.3-0.6-1.3-1.3c0-0.7,0.6-1.3,1.3-1.3c0.7,0,1.3,0.6,1.3,1.3
			C205.4,87.8,204.9,88.4,204.1,88.4" />
			<path class="st6" d="M200,88.4c-0.7,0-1.3-0.6-1.3-1.3c0-0.7,0.6-1.3,1.3-1.3c0.7,0,1.3,0.6,1.3,1.3
			C201.3,87.8,200.7,88.4,200,88.4" />
			<rect x="199.9" y="86.5" class="st6" width="4.4" height="1.1" />
			<path class="st6" d="M218.1,112.3c-0.7,0-1.3-0.6-1.3-1.3c0-0.7,0.6-1.3,1.3-1.3c0.7,0,1.3,0.6,1.3,1.3
			C219.4,111.7,218.8,112.3,218.1,112.3" />
			<path class="st6" d="M214,112.3c-0.7,0-1.3-0.6-1.3-1.3c0-0.7,0.6-1.3,1.3-1.3c0.7,0,1.3,0.6,1.3,1.3
			C215.3,111.7,214.7,112.3,214,112.3" />
			<rect x="213.8" y="110.4" class="st6" width="4.4" height="1.1" />
			<path class="st6" d="M210.4,99.3c-0.7,0-1.3-0.6-1.3-1.3c0-0.7,0.6-1.3,1.3-1.3c0.7,0,1.3,0.6,1.3,1.3
			C211.7,98.8,211.2,99.3,210.4,99.3" />
			<path class="st6" d="M206.3,99.3c-0.7,0-1.3-0.6-1.3-1.3c0-0.7,0.6-1.3,1.3-1.3c0.7,0,1.3,0.6,1.3,1.3
			C207.6,98.8,207,99.3,206.3,99.3" />
			<rect x="206.2" y="97.5" class="st6" width="4.4" height="1.1" />
			<path class="st6" d="M225.7,125.8c-0.7,0-1.3-0.6-1.3-1.3c0-0.7,0.6-1.3,1.3-1.3c0.7,0,1.3,0.6,1.3,1.3
			C227,125.2,226.4,125.8,225.7,125.8" />
			<path class="st6" d="M221.6,125.8c-0.7,0-1.3-0.6-1.3-1.3c0-0.7,0.6-1.3,1.3-1.3c0.7,0,1.3,0.6,1.3,1.3
			C222.9,125.2,222.3,125.8,221.6,125.8" />
			<rect x="221.4" y="123.9" class="st6" width="4.4" height="1.1" />
			<path class="st6" d="M255.2,147.9c0,0.7-0.6,1.3-1.3,1.3c-0.7,0-1.3-0.6-1.3-1.3c0-0.7,0.6-1.3,1.3-1.3
			C254.6,146.6,255.2,147.2,255.2,147.9" />
			<path class="st6" d="M255.2,152c0,0.7-0.6,1.3-1.3,1.3c-0.7,0-1.3-0.6-1.3-1.3c0-0.7,0.6-1.3,1.3-1.3
			C254.6,150.7,255.2,151.3,255.2,152" />
			<rect x="253.3" y="147.8" class="st6" width="1.1" height="4.4" />
			<path class="st6" d="M310.8,147.9c0,0.7-0.6,1.3-1.3,1.3c-0.7,0-1.3-0.6-1.3-1.3c0-0.7,0.6-1.3,1.3-1.3
			C310.2,146.6,310.8,147.2,310.8,147.9" />
			<path class="st6" d="M310.8,152c0,0.7-0.6,1.3-1.3,1.3c-0.7,0-1.3-0.6-1.3-1.3c0-0.7,0.6-1.3,1.3-1.3
			C310.2,150.7,310.8,151.3,310.8,152" />
			<rect x="309" y="147.8" class="st6" width="1.1" height="4.4" />
			<path class="st6" d="M284.1,147.8c0,0.7-0.6,1.3-1.3,1.3c-0.7,0-1.3-0.6-1.3-1.3c0-0.7,0.6-1.3,1.3-1.3
			C283.5,146.6,284.1,147.1,284.1,147.8" />
			<path class="st6" d="M284.1,151.9c0,0.7-0.6,1.3-1.3,1.3c-0.7,0-1.3-0.6-1.3-1.3c0-0.7,0.6-1.3,1.3-1.3
			C283.5,150.7,284.1,151.2,284.1,151.9" />
			<rect x="282.2" y="147.7" class="st6" width="1.1" height="4.4" />
			<path class="st6" d="M365.9,147.8c0,0.7-0.6,1.3-1.3,1.3c-0.7,0-1.3-0.6-1.3-1.3c0-0.7,0.6-1.3,1.3-1.3
			C365.4,146.6,365.9,147.1,365.9,147.8" />
			<path class="st6" d="M365.9,151.9c0,0.7-0.6,1.3-1.3,1.3c-0.7,0-1.3-0.6-1.3-1.3c0-0.7,0.6-1.3,1.3-1.3
			C365.4,150.7,365.9,151.2,365.9,151.9" />
			<rect x="364.1" y="147.7" class="st6" width="1.1" height="4.4" />
			<path class="st6" d="M340.8,147.9c0,0.7-0.6,1.3-1.3,1.3c-0.7,0-1.3-0.6-1.3-1.3c0-0.7,0.6-1.3,1.3-1.3
			C340.2,146.6,340.8,147.2,340.8,147.9" />
			<path class="st6" d="M340.8,152c0,0.7-0.6,1.3-1.3,1.3c-0.7,0-1.3-0.6-1.3-1.3c0-0.7,0.6-1.3,1.3-1.3
			C340.2,150.7,340.8,151.3,340.8,152" />
			<rect x="338.9" y="147.8" class="st6" width="1.1" height="4.4" />
		</g>
		<rect x="159.6" y="27.4" class="st15" width="6.3" height="6.2" />
		<g class="st0">
			<defs>
				<rect id="SVGID_7_" width="595.3" height="280.6" />
			</defs>
			<clipPath id="SVGID_8_">
				<use xlink:href="#SVGID_7_" style="overflow:visible;" />
			</clipPath>
			<path class="st16" d="M162.9,28.2L162.9,28.2c1,0,1.7,0.4,1.7,1.5c0,1.1-0.6,1.6-1.6,1.6h-0.1v-1c0.3-0.1,0.5-0.2,0.5-0.5
			c0-0.4-0.2-0.5-0.5-0.5V28.2z M161.2,28.2h1.8v1c-0.1-0.1-0.2-0.1-0.3-0.1h-0.2v1.1h0.2h0.3v1h-0.5v1.5h-1.2V28.2z" />
			<rect x="166.7" y="27.4" class="st17" width="6.3" height="6.2" />
			<path class="st18" d="M171.8,31.9L171.8,31.9l0-3.2c0,0,0-0.6-0.6-0.6h-0.7h-1.4h-0.7c-0.6,0-0.6,0.6-0.6,0.6v3.2
			c0,0,0,0.4,0.3,0.6v0.4c0,0.1,0.1,0.1,0.1,0.1h0.4c0.1,0,0.1-0.1,0.1-0.1v-0.3h0.2h1.4h0.2v0.3c0,0.1,0.1,0.1,0.1,0.1h0.4
			c0.1,0,0.1-0.1,0.1-0.1v-0.4C171.9,32.3,171.8,31.9,171.8,31.9 M169.1,28.4h1.6v0.4h-1.6V28.4z M168.7,32c-0.1,0-0.2-0.1-0.2-0.2
			c0-0.1,0.1-0.2,0.2-0.2c0.1,0,0.2,0.1,0.2,0.2C168.9,31.9,168.8,32,168.7,32 M171.1,32c-0.1,0-0.2-0.1-0.2-0.2
			c0-0.1,0.1-0.2,0.2-0.2c0.1,0,0.2,0.1,0.2,0.2C171.3,31.9,171.2,32,171.1,32 M171.5,30.8h-3.2V29h3.2V30.8z" />
			<rect x="247.7" y="54.2" class="st19" width="6.3" height="6.2" />
			<path class="st16" d="M251,55.1L251,55.1c1,0,1.7,0.4,1.7,1.5c0,1.1-0.6,1.6-1.6,1.6H251v-1c0.3-0.1,0.5-0.2,0.5-0.5
			c0-0.4-0.2-0.5-0.5-0.5V55.1z M249.2,55.1h1.7v1c-0.1-0.1-0.2-0.1-0.3-0.1h-0.2v1.1h0.2h0.3v1h-0.5v1.5h-1.2V55.1z" />
			<rect x="254.8" y="54.3" class="st17" width="6.3" height="6.2" />
			<path class="st18" d="M259.9,58.7L259.9,58.7v-3.2c0,0,0-0.6-0.6-0.6h-0.7h-1.4h-0.7c-0.6,0-0.6,0.6-0.6,0.6v3.2
			c0,0,0,0.4,0.3,0.6v0.4c0,0.1,0.1,0.1,0.1,0.1h0.4c0.1,0,0.1-0.1,0.1-0.1v-0.3h0.2h1.4h0.2v0.3c0,0.1,0.1,0.1,0.1,0.1h0.4
			c0.1,0,0.1-0.1,0.1-0.1v-0.4C259.9,59.1,259.9,58.7,259.9,58.7 M257.1,55.2h1.6v0.4h-1.6V55.2z M256.8,58.8
			c-0.1,0-0.2-0.1-0.2-0.2c0-0.1,0.1-0.2,0.2-0.2c0.1,0,0.2,0.1,0.2,0.2C257,58.7,256.9,58.8,256.8,58.8 M259.1,58.8
			c-0.1,0-0.2-0.1-0.2-0.2c0-0.1,0.1-0.2,0.2-0.2c0.1,0,0.2,0.1,0.2,0.2C259.4,58.7,259.3,58.8,259.1,58.8 M259.5,57.7h-3.2v-1.8
			h3.2V57.7z" />
			<rect x="363" y="47.8" class="st19" width="6.3" height="6.2" />
			<path class="st16" d="M366.2,48.7L366.2,48.7c1,0,1.7,0.4,1.7,1.5c0,1.1-0.6,1.6-1.6,1.6h-0.1v-1c0.3-0.1,0.5-0.2,0.5-0.5
			c0-0.4-0.2-0.5-0.5-0.5V48.7z M364.5,48.7h1.8v1c-0.1-0.1-0.2-0.1-0.3-0.1h-0.2v1.1h0.2h0.3v1h-0.5v1.5h-1.2V48.7z" />
			<rect x="370.1" y="47.9" class="st17" width="6.3" height="6.2" />
			<path class="st18" d="M375.2,52.3L375.2,52.3v-3.2c0,0,0-0.6-0.6-0.6h-0.7h-1.4h-0.7c-0.6,0-0.6,0.6-0.6,0.6v3.2
			c0,0.1,0,0.4,0.3,0.6v0.4c0,0.1,0.1,0.1,0.1,0.1h0.4c0.1,0,0.1-0.1,0.1-0.1V53h0.2h1.4h0.2v0.3c0,0.1,0.1,0.1,0.1,0.1h0.4
			c0.1,0,0.1-0.1,0.1-0.1v-0.4C375.2,52.8,375.2,52.3,375.2,52.3 M372.4,48.8h1.6v0.4h-1.6V48.8z M372,52.5c-0.1,0-0.2-0.1-0.2-0.2
			c0-0.1,0.1-0.2,0.2-0.2c0.1,0,0.2,0.1,0.2,0.2C372.3,52.4,372.2,52.5,372,52.5 M374.4,52.5c-0.1,0-0.2-0.1-0.2-0.2
			c0-0.1,0.1-0.2,0.2-0.2c0.1,0,0.2,0.1,0.2,0.2C374.6,52.4,374.5,52.5,374.4,52.5 M374.8,51.3h-3.2v-1.8h3.2V51.3z" />
			<rect x="371.3" y="94.7" class="st17" width="6.3" height="6.2" />
			<path class="st18" d="M376.4,99.2L376.4,99.2V96c0,0,0-0.6-0.6-0.6h-0.7h-1.4H373c-0.6,0-0.6,0.6-0.6,0.6v3.2c0,0,0,0.4,0.3,0.6
			v0.4c0,0.1,0.1,0.1,0.1,0.1h0.4c0.1,0,0.1-0.1,0.1-0.1v-0.3h0.2h1.4h0.2v0.3c0,0.1,0.1,0.1,0.1,0.1h0.4c0.1,0,0.1-0.1,0.1-0.1
			v-0.4C376.4,99.6,376.4,99.2,376.4,99.2 M373.6,95.7h1.6v0.4h-1.6V95.7z M373.2,99.3c-0.1,0-0.2-0.1-0.2-0.2
			c0-0.1,0.1-0.2,0.2-0.2c0.1,0,0.2,0.1,0.2,0.2C373.5,99.2,373.4,99.3,373.2,99.3 M375.6,99.3c-0.1,0-0.2-0.1-0.2-0.2
			c0-0.1,0.1-0.2,0.2-0.2c0.1,0,0.2,0.1,0.2,0.2C375.9,99.2,375.8,99.3,375.6,99.3 M376,98.1h-3.2v-1.8h3.2V98.1z" />
			<rect x="407" y="131.1" class="st17" width="6.3" height="6.2" />
			<path class="st18" d="M412,135.5L412,135.5l0-3.2c0,0,0-0.6-0.6-0.6h-0.7h-1.4h-0.7c-0.6,0-0.6,0.6-0.6,0.6v3.2
			c0,0.1,0,0.4,0.3,0.6v0.4c0,0.1,0.1,0.1,0.1,0.1h0.4c0.1,0,0.1-0.1,0.1-0.1v-0.3h0.2h1.4h0.2v0.3c0,0.1,0.1,0.1,0.1,0.1h0.4
			c0.1,0,0.1-0.1,0.1-0.1v-0.4C412.1,136,412,135.5,412,135.5 M409.3,132h1.6v0.4h-1.6V132z M408.9,135.7c-0.1,0-0.2-0.1-0.2-0.2
			c0-0.1,0.1-0.2,0.2-0.2c0.1,0,0.2,0.1,0.2,0.2C409.1,135.6,409,135.7,408.9,135.7 M411.3,135.7c-0.1,0-0.2-0.1-0.2-0.2
			c0-0.1,0.1-0.2,0.2-0.2c0.1,0,0.2,0.1,0.2,0.2C411.5,135.6,411.4,135.7,411.3,135.7 M411.7,134.5h-3.2v-1.8h3.2V134.5z" />
			<rect x="486.5" y="131.1" class="st17" width="6.3" height="6.2" />
			<path class="st18" d="M491.6,135.5L491.6,135.5v-3.2c0,0,0-0.6-0.6-0.6h-0.7h-1.4h-0.7c-0.6,0-0.6,0.6-0.6,0.6v3.2
			c0,0,0,0.4,0.3,0.6v0.4c0,0.1,0.1,0.1,0.1,0.1h0.4c0.1,0,0.1-0.1,0.1-0.1v-0.3h0.2h1.4h0.2v0.3c0,0.1,0.1,0.1,0.1,0.1h0.4
			c0.1,0,0.1-0.1,0.1-0.1v-0.4C491.6,136,491.6,135.5,491.6,135.5 M488.9,132h1.6v0.4h-1.6V132z M488.5,135.7
			c-0.1,0-0.2-0.1-0.2-0.2c0-0.1,0.1-0.2,0.2-0.2c0.1,0,0.2,0.1,0.2,0.2C488.7,135.6,488.6,135.7,488.5,135.7 M490.8,135.7
			c-0.1,0-0.2-0.1-0.2-0.2c0-0.1,0.1-0.2,0.2-0.2s0.2,0.1,0.2,0.2C491.1,135.6,491,135.7,490.8,135.7 M491.2,134.5h-3.2v-1.8h3.2
			V134.5z" />
			<rect x="505.4" y="101" class="st17" width="6.3" height="6.2" />
			<path class="st18" d="M510.5,105.4L510.5,105.4v-3.2c0,0,0-0.6-0.6-0.6h-0.7h-1.4h-0.7c-0.6,0-0.6,0.6-0.6,0.6v3.2
			c0,0,0,0.4,0.3,0.6v0.4c0,0.1,0.1,0.1,0.1,0.1h0.4c0.1,0,0.1-0.1,0.1-0.1V106h0.2h1.4h0.2v0.3c0,0.1,0.1,0.1,0.1,0.1h0.4
			c0.1,0,0.1-0.1,0.1-0.1V106C510.5,105.8,510.5,105.4,510.5,105.4 M507.8,101.9h1.6v0.4h-1.6V101.9z M507.4,105.5
			c-0.1,0-0.2-0.1-0.2-0.2c0-0.1,0.1-0.2,0.2-0.2c0.1,0,0.2,0.1,0.2,0.2C507.6,105.4,507.5,105.5,507.4,105.5 M509.8,105.5
			c-0.1,0-0.2-0.1-0.2-0.2c0-0.1,0.1-0.2,0.2-0.2c0.1,0,0.2,0.1,0.2,0.2C510,105.4,509.9,105.5,509.8,105.5 M510.2,104.4H507v-1.8
			h3.2V104.4z" />
			<rect x="507.1" y="249.4" class="st17" width="6.3" height="6.2" />
			<path class="st18" d="M512.2,253.8L512.2,253.8v-3.2c0,0,0-0.6-0.6-0.6H511h-1.4h-0.7c-0.6,0-0.6,0.6-0.6,0.6v3.2
			c0,0,0,0.4,0.3,0.6v0.4c0,0.1,0.1,0.1,0.1,0.1h0.4c0.1,0,0.1-0.1,0.1-0.1v-0.3h0.2h1.4h0.2v0.3c0,0.1,0.1,0.1,0.1,0.1h0.4
			c0.1,0,0.1-0.1,0.1-0.1v-0.4C512.3,254.3,512.2,253.8,512.2,253.8 M509.5,250.4h1.6v0.4h-1.6V250.4z M509.1,254
			c-0.1,0-0.2-0.1-0.2-0.2c0-0.1,0.1-0.2,0.2-0.2c0.1,0,0.2,0.1,0.2,0.2C509.3,253.9,509.2,254,509.1,254 M511.5,254
			c-0.1,0-0.2-0.1-0.2-0.2c0-0.1,0.1-0.2,0.2-0.2c0.1,0,0.2,0.1,0.2,0.2C511.7,253.9,511.6,254,511.5,254 M511.9,252.8h-3.2V251h3.2
			V252.8z" />
			<rect x="290.4" y="121.9" class="st17" width="6.3" height="6.2" />
			<path class="st18" d="M295.5,126.3L295.5,126.3l0-3.2c0,0,0-0.6-0.6-0.6h-0.7h-1.4h-0.7c-0.6,0-0.6,0.6-0.6,0.6v3.2
			c0,0.1,0,0.4,0.3,0.6v0.4c0,0.1,0.1,0.1,0.1,0.1h0.4c0.1,0,0.1-0.1,0.1-0.1v-0.3h0.2h1.4h0.2v0.3c0,0.1,0.1,0.1,0.1,0.1h0.4
			c0.1,0,0.1-0.1,0.1-0.1v-0.4C295.5,126.7,295.5,126.3,295.5,126.3 M292.8,122.8h1.6v0.4h-1.6V122.8z M292.4,126.4
			c-0.1,0-0.2-0.1-0.2-0.2c0-0.1,0.1-0.2,0.2-0.2c0.1,0,0.2,0.1,0.2,0.2C292.6,126.3,292.5,126.4,292.4,126.4 M294.8,126.4
			c-0.1,0-0.2-0.1-0.2-0.2c0-0.1,0.1-0.2,0.2-0.2c0.1,0,0.2,0.1,0.2,0.2C295,126.3,294.9,126.4,294.8,126.4 M295.2,125.3H292v-1.8
			h3.2V125.3z" />
			<rect x="271.1" y="138.2" class="st17" width="6.3" height="6.2" />
			<path class="st18" d="M276.2,142.6L276.2,142.6v-3.2c0,0,0-0.6-0.6-0.6H275h-1.4h-0.7c-0.6,0-0.6,0.6-0.6,0.6v3.2
			c0,0.1,0,0.4,0.3,0.6v0.4c0,0.1,0.1,0.1,0.1,0.1h0.4c0.1,0,0.1-0.1,0.1-0.1v-0.3h0.2h1.4h0.2v0.3c0,0.1,0.1,0.1,0.1,0.1h0.4
			c0.1,0,0.1-0.1,0.1-0.1v-0.4C276.2,143,276.2,142.6,276.2,142.6 M273.5,139.1h1.6v0.4h-1.6V139.1z M273.1,142.7
			c-0.1,0-0.2-0.1-0.2-0.2c0-0.1,0.1-0.2,0.2-0.2c0.1,0,0.2,0.1,0.2,0.2C273.3,142.6,273.2,142.7,273.1,142.7 M275.5,142.7
			c-0.1,0-0.2-0.1-0.2-0.2c0-0.1,0.1-0.2,0.2-0.2c0.1,0,0.2,0.1,0.2,0.2C275.7,142.6,275.6,142.7,275.5,142.7 M275.9,141.6h-3.2
			v-1.8h3.2V141.6z" />
			<rect x="251.2" y="101.7" class="st17" width="6.3" height="6.2" />
			<path class="st18" d="M256.3,106.1L256.3,106.1l0-3.2c0,0,0-0.6-0.6-0.6h-0.7h-1.4H253c-0.6,0-0.6,0.6-0.6,0.6v3.2
			c0,0,0,0.4,0.3,0.6v0.4c0,0.1,0.1,0.1,0.1,0.1h0.4c0.1,0,0.1-0.1,0.1-0.1v-0.3h0.2h1.4h0.2v0.3c0,0.1,0.1,0.1,0.1,0.1h0.4
			c0.1,0,0.1-0.1,0.1-0.1v-0.4C256.4,106.5,256.3,106.1,256.3,106.1 M253.6,102.6h1.6v0.4h-1.6V102.6z M253.2,106.2
			c-0.1,0-0.2-0.1-0.2-0.2c0-0.1,0.1-0.2,0.2-0.2c0.1,0,0.2,0.1,0.2,0.2C253.4,106.1,253.3,106.2,253.2,106.2 M255.6,106.2
			c-0.1,0-0.2-0.1-0.2-0.2c0-0.1,0.1-0.2,0.2-0.2c0.1,0,0.2,0.1,0.2,0.2C255.8,106.1,255.7,106.2,255.6,106.2 M256,105.1h-3.2v-1.8
			h3.2V105.1z" />
			<rect x="247.3" y="93.9" class="st17" width="6.3" height="6.2" />
			<path class="st18" d="M252.4,98.3L252.4,98.3v-3.2c0,0,0-0.6-0.6-0.6h-0.7h-1.4h-0.7c-0.6,0-0.6,0.6-0.6,0.6v3.2
			c0,0.1,0,0.4,0.3,0.6v0.4c0,0.1,0.1,0.1,0.1,0.1h0.4c0.1,0,0.1-0.1,0.1-0.1v-0.3h0.2h1.4h0.2v0.3c0,0.1,0.1,0.1,0.1,0.1h0.4
			c0.1,0,0.1-0.1,0.1-0.1v-0.4C252.4,98.8,252.4,98.3,252.4,98.3 M249.7,94.8h1.6v0.4h-1.6V94.8z M249.3,98.4
			c-0.1,0-0.2-0.1-0.2-0.2c0-0.1,0.1-0.2,0.2-0.2c0.1,0,0.2,0.1,0.2,0.2C249.5,98.3,249.4,98.4,249.3,98.4 M251.6,98.4
			c-0.1,0-0.2-0.1-0.2-0.2c0-0.1,0.1-0.2,0.2-0.2c0.1,0,0.2,0.1,0.2,0.2C251.9,98.3,251.8,98.4,251.6,98.4 M252,97.3h-3.2v-1.8h3.2
			V97.3z" />
			<rect x="48.7" y="27.2" class="st17" width="6.3" height="6.3" />
			<path class="st18" d="M54.2,29.4h-0.5c0,0-0.2,0.4-0.3,0.6h-1.1c0.1-0.4,0.7-2.1,0.7-2.1h-0.7L51,30h-1.5c-0.2,0-0.4,0.2-0.4,0.4
			c0,0.2,0.2,0.4,0.4,0.4H51l1.3,2H53c0,0-0.5-1.6-0.7-2h1.1c0.1,0.2,0.3,0.5,0.3,0.5h0.5c0,0-0.2-0.9-0.3-1
			C54,30.3,54.2,29.4,54.2,29.4" />
			<rect x="503.4" y="122.2" class="st17" width="11.1" height="10.9" />
			<polygon class="st18" points="511.8,127.9 510.9,126.3 509.7,126.3 509.7,124.7 508.4,124.7 508.4,126.3 506.9,126.3 506.3,127.9 
			503.8,127.9 505.6,130.3 512.4,130.3 514.3,127.9 		" />
			<rect x="327.9" y="162.5" class="st19" width="6.3" height="6.2" />
			<path class="st16" d="M331.2,163.3L331.2,163.3c1,0,1.7,0.4,1.7,1.5c0,1.1-0.6,1.6-1.6,1.6h-0.1v-1c0.3-0.1,0.5-0.2,0.5-0.5
			c0-0.4-0.2-0.5-0.5-0.5V163.3z M329.5,163.3h1.7v1c-0.1-0.1-0.2-0.1-0.3-0.1h-0.2v1.1h0.2h0.3v1h-0.5v1.5h-1.2V163.3z" />
			<rect x="342.2" y="162.3" class="st17" width="6.3" height="6.2" />
			<path class="st18" d="M347.3,166.8L347.3,166.8l0-3.2c0,0,0-0.6-0.6-0.6H346h-1.4h-0.7c-0.6,0-0.6,0.6-0.6,0.6v3.2
			c0,0.1,0,0.4,0.3,0.6v0.4c0,0.1,0.1,0.1,0.1,0.1h0.4c0.1,0,0.1-0.1,0.1-0.1v-0.3h0.2h1.4h0.2v0.3c0,0.1,0.1,0.1,0.1,0.1h0.4
			c0.1,0,0.1-0.1,0.1-0.1v-0.4C347.3,167.2,347.3,166.8,347.3,166.8 M344.5,163.3h1.6v0.4h-1.6V163.3z M344.1,166.9
			c-0.1,0-0.2-0.1-0.2-0.2c0-0.1,0.1-0.2,0.2-0.2c0.1,0,0.2,0.1,0.2,0.2C344.4,166.8,344.3,166.9,344.1,166.9 M346.5,166.9
			c-0.1,0-0.2-0.1-0.2-0.2c0-0.1,0.1-0.2,0.2-0.2c0.1,0,0.2,0.1,0.2,0.2C346.8,166.8,346.7,166.9,346.5,166.9 M346.9,165.8h-3.2V164
			h3.2V165.8z" />
			<rect x="335.1" y="162.3" class="st17" width="6.3" height="6.2" />
			<rect x="335.8" y="165.5" class="st18" width="5.2" height="0.6" />
			<polygon class="st18" points="336.9,165.7 338.2,165.7 339.8,164.7 338.6,164.7 		" />
			<rect x="335.8" y="164.3" class="st18" width="5.2" height="0.6" />
			<polygon class="st18" points="336.9,163.6 338.2,163.6 339.8,164.6 338.6,164.6 		" />
			<rect x="335.8" y="165.5" class="st18" width="5.2" height="0.6" />
			<polygon class="st18" points="339.8,166.8 338.6,166.8 336.9,165.8 338.2,165.8 		" />
			<rect x="197.2" y="129.2" class="st17" width="6.3" height="6.2" />
			<path class="st18" d="M202.3,133.7L202.3,133.7v-3.2c0,0,0-0.6-0.6-0.6h-0.7h-1.4H199c-0.6,0-0.6,0.6-0.6,0.6v3.2
			c0,0.1,0,0.4,0.3,0.6v0.4c0,0.1,0.1,0.1,0.1,0.1h0.4c0.1,0,0.1-0.1,0.1-0.1v-0.3h0.2h1.4h0.2v0.3c0,0.1,0.1,0.1,0.1,0.1h0.4
			c0.1,0,0.1-0.1,0.1-0.1v-0.4C202.4,134.1,202.3,133.7,202.3,133.7 M199.6,130.2h1.6v0.4h-1.6V130.2z M199.2,133.8
			c-0.1,0-0.2-0.1-0.2-0.2c0-0.1,0.1-0.2,0.2-0.2c0.1,0,0.2,0.1,0.2,0.2C199.4,133.7,199.3,133.8,199.2,133.8 M201.6,133.8
			c-0.1,0-0.2-0.1-0.2-0.2c0-0.1,0.1-0.2,0.2-0.2c0.1,0,0.2,0.1,0.2,0.2C201.8,133.7,201.7,133.8,201.6,133.8 M202,132.7h-3.2v-1.8
			h3.2V132.7z" />
			<rect x="190.2" y="129.2" class="st17" width="6.3" height="6.2" />
			<rect x="190.8" y="132.4" class="st18" width="5.2" height="0.6" />
			<polygon class="st18" points="192,132.6 193.2,132.6 194.9,131.6 193.6,131.6 		" />
			<rect x="190.8" y="131.2" class="st18" width="5.2" height="0.6" />
			<polygon class="st18" points="192,130.5 193.2,130.5 194.9,131.5 193.6,131.5 		" />
			<rect x="190.8" y="132.4" class="st18" width="5.2" height="0.6" />
			<polygon class="st18" points="194.9,133.7 193.6,133.7 192,132.7 193.2,132.7 		" />
			<rect x="537.9" y="215.1" class="st17" width="6.3" height="6.2" />
			<path class="st18" d="M543,219.6L543,219.6l0-3.2c0,0,0-0.6-0.6-0.6h-0.7h-1.4h-0.7c-0.6,0-0.6,0.6-0.6,0.6v3.2
			c0,0.1,0,0.4,0.3,0.6v0.4c0,0.1,0.1,0.1,0.1,0.1h0.4c0.1,0,0.1-0.1,0.1-0.1v-0.3h0.2h1.4h0.2v0.3c0,0.1,0.1,0.1,0.1,0.1h0.4
			c0.1,0,0.1-0.1,0.1-0.1v-0.4C543,220,543,219.6,543,219.6 M540.3,216.1h1.6v0.4h-1.6V216.1z M539.9,219.7c-0.1,0-0.2-0.1-0.2-0.2
			c0-0.1,0.1-0.2,0.2-0.2c0.1,0,0.2,0.1,0.2,0.2C540.1,219.6,540,219.7,539.9,219.7 M542.2,219.7c-0.1,0-0.2-0.1-0.2-0.2
			c0-0.1,0.1-0.2,0.2-0.2c0.1,0,0.2,0.1,0.2,0.2C542.5,219.6,542.4,219.7,542.2,219.7 M542.6,218.6h-3.2v-1.8h3.2V218.6z" />
			<rect x="530.8" y="215.1" class="st17" width="6.3" height="6.2" />
			<rect x="531.5" y="218.3" class="st18" width="5.2" height="0.6" />
			<polygon class="st18" points="532.6,218.5 533.9,218.5 535.6,217.5 534.3,217.5 		" />
			<rect x="531.5" y="217.1" class="st18" width="5.2" height="0.6" />
			<polygon class="st18" points="532.6,216.4 533.9,216.4 535.6,217.4 534.3,217.4 		" />
			<rect x="531.5" y="218.3" class="st18" width="5.2" height="0.6" />
			<polygon class="st18" points="535.6,219.6 534.3,219.6 532.6,218.6 533.9,218.6 		" />
			<rect x="519.8" y="157.9" class="st17" width="6.3" height="6.2" />
			<path class="st18" d="M524.9,162.3L524.9,162.3v-3.2c0,0,0-0.6-0.6-0.6h-0.7h-1.4h-0.7c-0.6,0-0.6,0.6-0.6,0.6v3.2
			c0,0.1,0,0.4,0.3,0.6v0.4c0,0.1,0.1,0.1,0.1,0.1h0.4c0.1,0,0.1-0.1,0.1-0.1v-0.3h0.2h1.4h0.2v0.3c0,0.1,0.1,0.1,0.1,0.1h0.4
			c0.1,0,0.1-0.1,0.1-0.1v-0.4C524.9,162.7,524.9,162.3,524.9,162.3 M522.1,158.8h1.6v0.4h-1.6V158.8z M521.7,162.4
			c-0.1,0-0.2-0.1-0.2-0.2c0-0.1,0.1-0.2,0.2-0.2c0.1,0,0.2,0.1,0.2,0.2C522,162.3,521.9,162.4,521.7,162.4 M524.1,162.4
			c-0.1,0-0.2-0.1-0.2-0.2c0-0.1,0.1-0.2,0.2-0.2c0.1,0,0.2,0.1,0.2,0.2C524.3,162.3,524.2,162.4,524.1,162.4 M524.5,161.3h-3.2
			v-1.8h3.2V161.3z" />
			<rect x="544.6" y="195.7" class="st19" width="6.3" height="6.3" />
			<path class="st16" d="M547.8,196.6h0.1c1,0,1.6,0.4,1.6,1.5c0,1.1-0.5,1.5-1.6,1.5h-0.2v-0.9c0.3-0.1,0.5-0.2,0.5-0.5
			c0-0.4-0.2-0.5-0.5-0.6V196.6z M546.1,196.6h1.7v0.9h-0.3h-0.2v1.1h0.2h0.3v0.9h-0.5v1.5h-1.2V196.6z" />
			<rect x="88.4" y="27.2" class="st19" width="6.3" height="6.3" />
			<path class="st16" d="M91.6,28.2h0.1c1,0,1.6,0.4,1.6,1.5c0,1.1-0.5,1.5-1.6,1.5h-0.2v-0.9c0.3-0.1,0.5-0.2,0.5-0.5
			c0-0.4-0.2-0.5-0.5-0.6V28.2z M89.9,28.2h1.7v0.9h-0.3h-0.2v1.1h0.2h0.3v0.9h-0.5v1.5h-1.2V28.2z" />
			<rect x="68" y="63.3" class="st19" width="6.3" height="6.2" />
			<path class="st16" d="M71.3,64.2L71.3,64.2c1,0,1.8,0.4,1.8,1.5c0,1.1-0.6,1.6-1.6,1.6h-0.1v-1c0.3,0,0.5-0.1,0.5-0.5
			c0-0.4-0.2-0.5-0.5-0.5V64.2z M69.6,64.2h1.8v1H71h-0.2v1.1H71h0.3v1h-0.5v1.5h-1.2V64.2z" />
			<rect x="106.6" y="63.1" class="st19" width="6.2" height="6.2" />
			<path class="st16" d="M109.8,64h0.1c1,0,1.6,0.4,1.6,1.5c0,1.1-0.5,1.6-1.6,1.6h-0.2v-1c0.3,0,0.5-0.1,0.5-0.5s-0.2-0.5-0.5-0.5
			V64z M108.1,64h1.7v1h-0.3h-0.2v1.1h0.2h0.3v1h-0.5v1.5h-1.2V64z" />
		</g>
	</g>
</svg>
